# xmcd CD database file
#
# Track frame offsets:
#	150
#	14700
#	27187
#	48412
#
# Disc length: 833 seconds
#
# Revision: 0
# Processed by: cddbd v1.5PL3 Copyright (c) Steve Scherf et al.
# Submitted via: CDex 1.50
#
DISCID=2c033f04
DTITLE=妹尾 武 - 星霜 -Limited Edition-
DYEAR=2003
DGENRE=Instrumental
TTITLE0=カーテンコール
TTITLE1=大きな古時計
TTITLE2=北極星 III
TTITLE3=星霜 -a cappella-
EXTD=YEAR: 2003
EXTT0=
EXTT1=
EXTT2=
EXTT3=
PLAYORDER=
